<?xml version="1.0" encoding="UTF-8"?>
<svg id="Capa_1" data-name="Capa 1" xmlns="http://www.w3.org/2000/svg" xmlns:xlink="http://www.w3.org/1999/xlink" viewBox="0 0 1024 768">
  <defs>
    <clipPath id="clippath">
      <rect width="1024" height="768" style="fill: none;"/>
    </clipPath>
    <filter id="drop-shadow-1" x="-39.19" y="325.31" width="975" height="569" filterUnits="userSpaceOnUse">
      <feOffset dx="4.01" dy="0"/>
      <feGaussianBlur result="blur" stdDeviation="13.38"/>
      <feFlood flood-color="#000" flood-opacity=".15"/>
      <feComposite in2="blur" operator="in"/>
      <feComposite in="SourceGraphic"/>
    </filter>
    <filter id="drop-shadow-2" x="-46.19" y="370.31" width="981" height="527" filterUnits="userSpaceOnUse">
      <feOffset dx="4.01" dy="0"/>
      <feGaussianBlur result="blur-2" stdDeviation="13.38"/>
      <feFlood flood-color="#000" flood-opacity=".15"/>
      <feComposite in2="blur-2" operator="in"/>
      <feComposite in="SourceGraphic"/>
    </filter>
    <filter id="drop-shadow-3" x="-40.19" y="488.31" width="867" height="404" filterUnits="userSpaceOnUse">
      <feOffset dx="4.01" dy="0"/>
      <feGaussianBlur result="blur-3" stdDeviation="13.38"/>
      <feFlood flood-color="#000" flood-opacity=".15"/>
      <feComposite in2="blur-3" operator="in"/>
      <feComposite in="SourceGraphic"/>
    </filter>
    <filter id="drop-shadow-4" x="575.87" y="-76.2" width="517" height="583" filterUnits="userSpaceOnUse">
      <feOffset dx="4.87" dy="0"/>
      <feGaussianBlur result="blur-4" stdDeviation="16.23"/>
      <feFlood flood-color="#000" flood-opacity=".15"/>
      <feComposite in2="blur-4" operator="in"/>
      <feComposite in="SourceGraphic"/>
    </filter>
    <filter id="drop-shadow-5" x="610.87" y="-50.2" width="472" height="453" filterUnits="userSpaceOnUse">
      <feOffset dx="4.87" dy="0"/>
      <feGaussianBlur result="blur-5" stdDeviation="16.23"/>
      <feFlood flood-color="#000" flood-opacity=".15"/>
      <feComposite in2="blur-5" operator="in"/>
      <feComposite in="SourceGraphic"/>
    </filter>
    <filter id="drop-shadow-6" x="619.87" y="-58.2" width="473" height="453" filterUnits="userSpaceOnUse">
      <feOffset dx="4.87" dy="0"/>
      <feGaussianBlur result="blur-6" stdDeviation="16.23"/>
      <feFlood flood-color="#000" flood-opacity=".15"/>
      <feComposite in2="blur-6" operator="in"/>
      <feComposite in="SourceGraphic"/>
    </filter>
    <filter id="drop-shadow-7" x="784.87" y="-83.2" width="306" height="535" filterUnits="userSpaceOnUse">
      <feOffset dx="4.87" dy="0"/>
      <feGaussianBlur result="blur-7" stdDeviation="16.23"/>
      <feFlood flood-color="#000" flood-opacity=".15"/>
      <feComposite in2="blur-7" operator="in"/>
      <feComposite in="SourceGraphic"/>
    </filter>
    <filter id="drop-shadow-8" x="-53.97" y="-72.2" width="517" height="583" filterUnits="userSpaceOnUse">
      <feOffset dx="4.87" dy="0"/>
      <feGaussianBlur result="blur-8" stdDeviation="16.23"/>
      <feFlood flood-color="#000" flood-opacity=".15"/>
      <feComposite in2="blur-8" operator="in"/>
      <feComposite in="SourceGraphic"/>
    </filter>
    <filter id="drop-shadow-9" x="-53.73" y="-54.2" width="472" height="452" filterUnits="userSpaceOnUse">
      <feOffset dx="4.87" dy="0"/>
      <feGaussianBlur result="blur-9" stdDeviation="16.23"/>
      <feFlood flood-color="#000" flood-opacity=".15"/>
      <feComposite in2="blur-9" operator="in"/>
      <feComposite in="SourceGraphic"/>
    </filter>
    <filter id="drop-shadow-10" x="-51.97" y="-80.2" width="306" height="535" filterUnits="userSpaceOnUse">
      <feOffset dx="4.87" dy="0"/>
      <feGaussianBlur result="blur-10" stdDeviation="16.23"/>
      <feFlood flood-color="#000" flood-opacity=".15"/>
      <feComposite in2="blur-10" operator="in"/>
      <feComposite in="SourceGraphic"/>
    </filter>
  </defs>
  <g style="clip-path: url(#clippath);">
    <g>
      <g>
        <path d="M-.6,365.97c23.97,41.57,70.95,79.27,117.42,116.41,21.96,17.55,43.96,35.13,69.05,51.73,52.87,34.99,121.83,66.17,207.43,81.23,52.06,9.16,108.07,12.02,161.9,18.54,148.24,17.96,282.77,67.41,334.83,134.94v83.75H-2.44L-.6,365.97Z" style="fill: #f7f7f7; filter: url(#drop-shadow-1); opacity: .85;"/>
        <path d="M-9.87,411.35c.53,4.82,1.28,9.62,2.26,14.42.97,4.79,2.16,9.57,3.56,14.33,1.39,4.73,2.99,9.45,4.8,14.16,1.81,4.72,3.83,9.42,6.05,14.11,2.22,4.68,4.64,9.34,7.25,13.97,2.61,4.64,5.42,9.25,8.42,13.83,3,4.59,6.18,9.15,9.55,13.68,3.37,4.54,6.92,9.04,10.65,13.51,3.71,4.46,7.6,8.88,11.66,13.28,4.08,4.42,8.33,8.8,12.74,13.15,4.42,4.35,9,8.67,13.74,12.95,4.75,4.28,9.65,8.53,14.71,12.74,5.06,4.21,10.28,8.38,15.64,12.51,5.37,4.13,10.89,8.23,16.54,12.28,5.64,4.03,11.41,8.03,17.33,11.97,5.94,3.97,12.03,7.89,18.24,11.77,6.22,3.88,12.56,7.71,19.04,11.5,6.48,3.79,13.08,7.53,19.8,11.22,6.72,3.69,13.57,7.33,20.54,10.92,6.93,3.57,13.98,7.1,21.14,10.57,7.19,3.49,14.49,6.92,21.9,10.3,7.4,3.38,14.91,6.7,22.53,9.97,7.61,3.26,15.32,6.47,23.13,9.63,8.72,3.52,17.57,6.98,26.53,10.36,9.11,3.44,18.35,6.81,27.71,10.1,9.32,3.27,18.76,6.47,28.34,9.58,9.61,3.12,19.36,6.15,29.23,9.09,9.87,2.94,19.87,5.78,30,8.51,10.13,2.74,20.38,5.37,30.77,7.89,10.46,2.54,21.04,4.96,31.74,7.26,10.7,2.31,21.52,4.51,32.42,6.6,10.85,2.08,21.78,4.06,32.79,5.94,11.06,1.89,22.2,3.69,33.4,5.41,11.21,1.72,22.48,3.35,33.8,4.9,11.34,1.56,22.72,3.04,34.14,4.46,11.44,1.42,22.91,2.78,34.41,4.08,11.46,1.3,22.96,2.54,34.47,3.74,11.58,1.21,23.17,2.37,34.78,3.5,11.61,1.13,23.24,2.23,34.87,3.3,11.63,1.07,23.26,2.13,34.91,3.17,11.19,1,22.39,1.99,33.59,2.98v47.09H-9.87v-444.73Z" style="fill: #cacaca; filter: url(#drop-shadow-2); opacity: .85;"/>
        <path d="M-3.94,529.39c14.85,4.49,27.6,10.37,38.32,16.93,10.79,6.61,19.59,13.9,27.03,21.45,8.35,8.46,14.94,17.26,21.23,26.09,6.61,9.28,12.87,18.62,20.44,27.74,6.48,7.81,14.03,15.41,22.97,22.67,8.34,6.78,17.77,13.27,28.13,19.42,10.3,6.11,21.54,11.86,33.57,17.23,12.08,5.38,24.96,10.37,38.52,14.9,13.56,4.53,27.8,8.62,42.59,12.2,14.74,3.57,30.03,6.64,45.73,9.16,18.35,2.95,37.24,5.05,56.31,6.67,20.93,1.79,42.04,3.04,63.1,4.42,20.01,1.31,39.97,2.79,59.74,4.77,18.97,1.89,37.77,4.18,56.24,6.96,18.34,2.76,36.36,5.99,53.84,9.79,17.53,3.81,34.51,8.2,50.63,13.2,14.78,4.59,28.79,9.71,41.77,15.38,12.75,5.56,24.52,11.62,35.05,18.13,10.39,6.43,19.57,13.29,27.21,20.52,7.62,7.21,13.69,14.78,17.87,22.59,2.02,3.78,3.6,7.61,4.71,11.47H-3.94v-321.68Z" style="fill: #f3f3f3; filter: url(#drop-shadow-3); opacity: .85;"/>
      </g>
      <g>
        <path d="M636.92-26.65c-2.49,5.54-4.65,11.18-6.52,16.88-1.87,5.7-3.43,11.47-4.73,17.28-1.3,5.82-2.34,11.67-3.14,17.55-.8,5.86-1.37,11.74-1.74,17.62-.36,5.7-.55,11.4-.5,17.11.05,5.61.33,11.22.93,16.81.6,5.54,1.51,11.06,2.84,16.51,1.32,5.44,3.05,10.82,5.28,16.06,2.15,5.06,4.77,9.99,7.87,14.71,2.74,4.17,5.84,8.17,9.25,11.99,3.39,3.8,7.09,7.41,11.02,10.84,3.96,3.45,8.15,6.7,12.53,9.79,4.41,3.1,9,6.03,13.72,8.81,4.79,2.82,9.73,5.47,14.75,8,5.07,2.55,10.24,4.96,15.47,7.26,5.23,2.3,10.52,4.49,15.86,6.6,5.33,2.1,10.71,4.13,16.12,6.09,5.61,2.04,11.25,4.02,16.88,6,5.75,2.02,11.5,4.04,17.23,6.09,5.74,2.05,11.46,4.14,17.14,6.3,5.64,2.14,11.24,4.36,16.77,6.69,5.51,2.32,10.96,4.75,16.31,7.32,5.3,2.56,10.5,5.26,15.55,8.13,5.03,2.86,9.91,5.9,14.58,9.14,4.67,3.23,9.13,6.67,13.34,10.31,4.29,3.71,8.29,7.64,12.01,11.74,3.71,4.09,7.15,8.35,10.35,12.72,3.21,4.38,6.19,8.88,8.99,13.44,2.82,4.6,5.47,9.26,8,13.97,2.54,4.72,4.97,9.47,7.36,14.25,2.41,4.81,4.77,9.63,7.15,14.45,2.38,4.81,4.79,9.62,7.29,14.39,2.48,4.74,5.04,9.44,7.76,14.09,2.74,4.69,5.65,9.31,8.74,13.85,3.09,4.55,6.35,9.03,9.78,13.41,3.43,4.39,7.02,8.69,10.76,12.9,3.75,4.21,7.65,8.33,11.7,12.34,4.05,4.02,8.25,7.93,12.59,11.74,4.32,3.79,8.78,7.47,13.38,11.04,4.61,3.58,9.36,7.05,14.23,10.4,4.69,3.22,9.5,6.33,14.42,9.32V-26.65h-401.34Z" style="fill: #f4f4f4; filter: url(#drop-shadow-4); opacity: .8;"/>
        <path d="M656.33-.59c-.92,3.71-1.43,7.49-1.54,11.27-.12,3.78.16,7.57.8,11.32.65,3.75,1.66,7.46,3.02,11.08,1.36,3.61,3.05,7.13,5.08,10.52,2.03,3.4,4.39,6.67,7.05,9.77,2.66,3.09,5.62,6.01,8.87,8.69,3.3,2.73,6.89,5.23,10.73,7.44,4.44,2.56,9.16,4.78,14.03,6.74,4.91,1.98,9.97,3.72,15.08,5.33,5.13,1.62,10.32,3.13,15.49,4.66,4.65,1.37,9.29,2.77,13.88,4.27,4.4,1.43,8.77,2.94,13.1,4.53,4.34,1.6,8.64,3.28,12.88,5.05,4.21,1.76,8.36,3.62,12.44,5.59,4.07,1.96,8.06,4.03,11.96,6.21,3.86,2.16,7.61,4.44,11.25,6.85,3.59,2.38,7.06,4.89,10.38,7.53,3.27,2.6,6.38,5.34,9.3,8.21,2.92,2.87,5.65,5.87,8.15,9,2.51,3.14,4.78,6.41,6.78,9.79,2.25,3.79,4.13,7.71,5.7,11.72,1.76,4.5,3.16,9.09,4.41,13.7,1.26,4.63,2.37,9.29,3.57,13.93,1.19,4.58,2.46,9.15,4.04,13.66,1.33,3.78,2.88,7.51,4.63,11.17,1.75,3.65,3.69,7.24,5.83,10.75,2.14,3.51,4.46,6.95,6.95,10.3,2.49,3.34,5.14,6.59,7.95,9.76,2.83,3.18,5.81,6.27,8.94,9.27,3.13,3,6.4,5.9,9.81,8.69,3.41,2.8,6.94,5.49,10.59,8.07,3.65,2.58,7.42,5.06,11.29,7.42,3.87,2.36,7.84,4.6,11.91,6.72,4.21,2.2,8.53,4.25,12.92,6.2,4.95,2.19,9.98,4.26,15.01,6.33,5.02,2.07,10.03,4.16,14.95,6.4,4.9,2.23,9.7,4.61,14.28,7.26,4.04,2.34,7.88,4.92,11.42,7.76,3.5,2.81,6.72,5.87,9.5,9.18,2.73,3.25,5.04,6.75,6.72,10.45,1.61,3.55,2.64,7.29,2.93,11.08V-.59h-372.06Z" style="fill: #cacaca; filter: url(#drop-shadow-5); opacity: .8;"/>
        <path d="M666.2-8.93c-.92,3.71-1.43,7.49-1.54,11.27-.12,3.78.16,7.57.8,11.32.65,3.75,1.66,7.46,3.02,11.08,1.36,3.61,3.05,7.13,5.08,10.52,2.03,3.4,4.39,6.67,7.05,9.77,2.66,3.09,5.62,6.01,8.87,8.69,3.3,2.73,6.89,5.23,10.73,7.44,4.44,2.56,9.16,4.78,14.03,6.74,4.91,1.98,9.97,3.72,15.08,5.33,5.13,1.62,10.32,3.13,15.49,4.66,4.65,1.37,9.29,2.77,13.88,4.27,4.4,1.43,8.77,2.94,13.1,4.53,4.34,1.6,8.64,3.28,12.88,5.05,4.21,1.76,8.36,3.62,12.44,5.59,4.07,1.96,8.06,4.03,11.96,6.21,3.86,2.16,7.61,4.44,11.25,6.85,3.59,2.38,7.06,4.89,10.38,7.53,3.27,2.6,6.38,5.34,9.3,8.21,2.92,2.87,5.65,5.87,8.15,9,2.51,3.14,4.78,6.41,6.78,9.79,2.25,3.79,4.13,7.71,5.7,11.72,1.76,4.5,3.16,9.09,4.41,13.7,1.26,4.63,2.37,9.29,3.57,13.93,1.19,4.58,2.46,9.15,4.04,13.66,1.33,3.78,2.88,7.51,4.63,11.17,1.75,3.65,3.69,7.24,5.83,10.75,2.14,3.51,4.46,6.95,6.95,10.29,2.49,3.34,5.14,6.59,7.95,9.76,2.83,3.18,5.81,6.27,8.94,9.27,3.13,3,6.4,5.9,9.81,8.69,3.41,2.8,6.94,5.49,10.59,8.07,3.65,2.58,7.42,5.06,11.29,7.42,3.87,2.36,7.84,4.6,11.91,6.72,4.21,2.2,8.53,4.25,12.92,6.2,4.95,2.19,9.98,4.26,15.01,6.33,5.02,2.07,10.03,4.16,14.95,6.4,4.9,2.23,9.7,4.61,14.28,7.26,4.04,2.34,7.88,4.92,11.42,7.76,3.5,2.81,6.72,5.87,9.5,9.18,2.73,3.25,5.04,6.75,6.72,10.45,1.61,3.55,2.64,7.29,2.93,11.07V-8.93h-372.06Z" style="fill: #f7f7f7; filter: url(#drop-shadow-6); opacity: .8;"/>
        <path d="M857.04-34.46c-6.82,1.07-12.87,4.57-17.39,9.39-4.66,4.97-7.73,11.16-9.26,17.57-.78,3.25-1.16,6.58-1.12,9.91.05,3.62.65,7.19,1.65,10.69,2.29,8.07,6.56,15.53,11.7,22.34,5.25,6.95,11.38,13.27,17.7,19.38,6.33,6.12,12.83,12.1,18.84,18.51,5.93,6.33,11.4,13.1,15.45,20.62,2.13,3.96,3.83,8.1,5.08,12.37,1.36,4.61,2.25,9.34,2.92,14.08,1.39,9.81,2.17,19.71,2.79,29.58.6,9.62.86,19.24.96,28.88.09,8.85.11,17.7.46,26.55.35,8.77,1.01,17.54,2.44,26.22,1.4,8.52,3.54,16.97,6.82,25.04,3.15,7.75,7.38,15.07,12.55,21.81,4.93,6.42,10.61,12.32,16.64,17.86,6.11,5.63,12.58,10.92,19.09,16.14,6.55,5.26,13.16,10.45,19.55,15.88,6.55,5.57,12.83,11.4,18.59,17.69,6.02,6.58,11.5,13.58,16.4,20.93,4.89,7.35,9.19,15.03,12.84,22.98,1.76,3.83,3.37,7.72,4.82,11.66V-34.46h-179.51Z" style="fill: #f2f2f2; filter: url(#drop-shadow-7); opacity: .8;"/>
      </g>
      <g>
        <path d="M391.48-23.02c2.49,5.54,4.65,11.18,6.52,16.88,1.87,5.7,3.43,11.47,4.73,17.28,1.3,5.82,2.34,11.67,3.14,17.55.8,5.86,1.37,11.74,1.74,17.62.36,5.7.55,11.4.5,17.11-.05,5.61-.33,11.22-.93,16.81-.6,5.54-1.51,11.06-2.84,16.51-1.32,5.44-3.05,10.82-5.28,16.06-2.15,5.06-4.77,9.99-7.87,14.71-2.74,4.17-5.84,8.17-9.25,11.99-3.39,3.8-7.09,7.41-11.02,10.84-3.96,3.45-8.15,6.7-12.53,9.79-4.41,3.1-9,6.03-13.72,8.81-4.79,2.82-9.73,5.47-14.75,8-5.07,2.55-10.24,4.96-15.47,7.26-5.23,2.3-10.52,4.49-15.86,6.6-5.33,2.1-10.71,4.13-16.12,6.09-5.61,2.04-11.25,4.02-16.88,6-5.75,2.02-11.5,4.04-17.23,6.09-5.74,2.05-11.46,4.14-17.14,6.3-5.64,2.14-11.24,4.36-16.77,6.69-5.51,2.32-10.96,4.75-16.31,7.32-5.3,2.56-10.5,5.26-15.55,8.13-5.03,2.86-9.91,5.9-14.58,9.14-4.67,3.23-9.13,6.67-13.34,10.31-4.29,3.71-8.29,7.64-12.01,11.74-3.71,4.09-7.15,8.35-10.35,12.72-3.21,4.38-6.19,8.88-8.99,13.44-2.82,4.6-5.47,9.26-8,13.97-2.54,4.72-4.97,9.47-7.36,14.25-2.41,4.81-4.77,9.63-7.15,14.45-2.38,4.81-4.79,9.62-7.29,14.39-2.48,4.74-5.04,9.44-7.76,14.09-2.74,4.69-5.65,9.31-8.74,13.85-3.09,4.55-6.35,9.03-9.78,13.41-3.43,4.39-7.02,8.69-10.76,12.9-3.75,4.21-7.65,8.33-11.7,12.34-4.05,4.02-8.25,7.93-12.59,11.74-4.32,3.79-8.78,7.47-13.38,11.04-4.61,3.58-9.36,7.05-14.23,10.4-4.69,3.22-9.5,6.33-14.42,9.32V-23.02h401.34Z" style="fill: #f4f4f4; filter: url(#drop-shadow-8); opacity: .8;"/>
        <path d="M372.07,3.04c.92,3.71,1.43,7.49,1.54,11.27.12,3.78-.16,7.57-.8,11.32-.65,3.75-1.66,7.46-3.02,11.08-1.36,3.61-3.05,7.13-5.08,10.52-2.03,3.4-4.39,6.67-7.05,9.77-2.66,3.09-5.62,6.01-8.87,8.69-3.3,2.73-6.89,5.23-10.73,7.44-4.44,2.56-9.16,4.78-14.03,6.74-4.91,1.98-9.97,3.72-15.08,5.33-5.13,1.62-10.32,3.13-15.49,4.66-4.65,1.37-9.29,2.77-13.88,4.27-4.4,1.43-8.77,2.94-13.1,4.53-4.34,1.6-8.64,3.28-12.88,5.05-4.21,1.76-8.36,3.62-12.44,5.59-4.07,1.96-8.06,4.03-11.96,6.21-3.86,2.16-7.61,4.44-11.25,6.85-3.59,2.38-7.06,4.89-10.38,7.53-3.27,2.6-6.38,5.34-9.3,8.21-2.92,2.87-5.65,5.87-8.15,9-2.51,3.14-4.78,6.41-6.78,9.79-2.25,3.79-4.13,7.71-5.7,11.72-1.76,4.5-3.16,9.09-4.41,13.7-1.26,4.63-2.37,9.29-3.57,13.93-1.19,4.58-2.46,9.15-4.04,13.66-1.33,3.78-2.88,7.51-4.63,11.17-1.75,3.65-3.69,7.24-5.83,10.75-2.14,3.51-4.46,6.95-6.95,10.3-2.49,3.34-5.14,6.59-7.95,9.76-2.83,3.18-5.81,6.27-8.94,9.27-3.13,3-6.4,5.9-9.81,8.69-3.41,2.8-6.94,5.49-10.59,8.07-3.65,2.58-7.42,5.06-11.29,7.42-3.87,2.36-7.84,4.6-11.91,6.72-4.21,2.2-8.53,4.25-12.92,6.2-4.95,2.19-9.98,4.26-15.01,6.33-5.02,2.07-10.03,4.16-14.95,6.4-4.9,2.23-9.7,4.61-14.28,7.26-4.04,2.34-7.88,4.92-11.42,7.76-3.5,2.81-6.72,5.87-9.5,9.18-2.73,3.25-5.04,6.75-6.72,10.45-1.61,3.55-2.64,7.29-2.93,11.08V3.04h372.06Z" style="fill: #cacaca; opacity: .8;"/>
        <path d="M362.2-5.3c.92,3.71,1.43,7.49,1.54,11.27.12,3.78-.16,7.57-.8,11.32-.65,3.75-1.66,7.46-3.02,11.08-1.36,3.61-3.05,7.13-5.08,10.52-2.03,3.4-4.39,6.67-7.05,9.77-2.66,3.09-5.62,6.01-8.87,8.69-3.3,2.73-6.89,5.23-10.73,7.44-4.44,2.56-9.16,4.78-14.03,6.74-4.91,1.98-9.97,3.72-15.08,5.33-5.13,1.62-10.32,3.13-15.49,4.66-4.65,1.37-9.29,2.77-13.88,4.27-4.4,1.43-8.77,2.94-13.1,4.53-4.34,1.6-8.64,3.28-12.88,5.05-4.21,1.76-8.36,3.62-12.44,5.59-4.07,1.96-8.06,4.03-11.96,6.21-3.86,2.16-7.61,4.44-11.25,6.85-3.59,2.38-7.06,4.89-10.38,7.53-3.27,2.6-6.38,5.34-9.3,8.21-2.92,2.87-5.65,5.87-8.15,9-2.51,3.14-4.78,6.41-6.78,9.79-2.25,3.79-4.13,7.71-5.7,11.72-1.76,4.5-3.16,9.09-4.41,13.7-1.26,4.63-2.37,9.29-3.57,13.93-1.19,4.58-2.46,9.15-4.04,13.66-1.33,3.78-2.88,7.51-4.63,11.17-1.75,3.65-3.69,7.24-5.83,10.75-2.14,3.51-4.46,6.95-6.95,10.29-2.49,3.34-5.14,6.59-7.95,9.76-2.83,3.18-5.81,6.27-8.94,9.27-3.13,3-6.4,5.9-9.81,8.69-3.41,2.8-6.94,5.49-10.59,8.07-3.65,2.58-7.42,5.06-11.29,7.42-3.87,2.36-7.84,4.6-11.91,6.72-4.21,2.2-8.53,4.25-12.92,6.2-4.95,2.19-9.98,4.26-15.01,6.33-5.02,2.07-10.03,4.16-14.95,6.4-4.9,2.23-9.7,4.61-14.28,7.26-4.04,2.34-7.88,4.92-11.42,7.76-3.5,2.81-6.72,5.87-9.5,9.18-2.73,3.25-5.04,6.75-6.72,10.45-1.61,3.55-2.64,7.29-2.93,11.07V-5.3h372.06Z" style="fill: #f7f7f7; filter: url(#drop-shadow-9); opacity: .8;"/>
        <path d="M171.36-30.83c6.82,1.07,12.87,4.57,17.39,9.39,4.66,4.97,7.73,11.16,9.26,17.57.78,3.25,1.16,6.58,1.12,9.91-.05,3.62-.65,7.19-1.65,10.69-2.29,8.07-6.56,15.53-11.7,22.34-5.25,6.95-11.38,13.27-17.7,19.38-6.33,6.12-12.83,12.1-18.84,18.51-5.93,6.33-11.4,13.1-15.45,20.62-2.13,3.96-3.83,8.1-5.08,12.37-1.36,4.61-2.25,9.34-2.92,14.08-1.39,9.81-2.17,19.71-2.79,29.58-.6,9.62-.86,19.24-.96,28.88-.09,8.85-.11,17.7-.46,26.55-.35,8.77-1.01,17.54-2.44,26.22-1.4,8.52-3.54,16.97-6.82,25.04-3.15,7.75-7.38,15.07-12.55,21.81-4.93,6.42-10.61,12.32-16.64,17.86-6.11,5.63-12.58,10.92-19.09,16.14-6.55,5.26-13.16,10.45-19.55,15.88-6.55,5.57-12.83,11.4-18.59,17.69-6.02,6.58-11.5,13.58-16.4,20.93-4.89,7.35-9.19,15.03-12.84,22.98-1.76,3.83-3.37,7.72-4.82,11.66V-30.83h179.51Z" style="fill: #f2f2f2; filter: url(#drop-shadow-10); opacity: .8;"/>
      </g>
    </g>
    <rect x="86.71" width="510.33" height="765.49" style="fill: none;"/>
  </g>
</svg>